<svg width="24" height="24" viewBox="0 0 24 24" fill="none" xmlns="http://www.w3.org/2000/svg">
<path d="M2.09936 11.9177C2.27646 12.2921 2.72358 12.4521 3.09802 12.275C3.47246 12.0979 3.63244 11.6508 3.45533 11.2763L2.09936 11.9177ZM2.52054 11.0028L3.21904 10.7297L3.21904 10.7297L2.52054 11.0028ZM12 5.414L11.3774 5.83215C11.5167 6.03957 11.7501 6.164 12 6.164C12.2499 6.164 12.4833 6.03957 12.6226 5.83215L12 5.414ZM16.5455 17.4L16.0178 16.867L16.0178 16.867L16.5455 17.4ZM12 21L11.5869 21.626C11.8375 21.7913 12.1625 21.7913 12.4131 21.626L12 21ZM7.45455 17.4L7.98221 16.867L7.98218 16.867L7.45455 17.4ZM7.38184 16.2767C7.08665 15.9861 6.61179 15.9899 6.32121 16.2851C6.03063 16.5803 6.03437 17.0551 6.32956 17.3457L7.38184 16.2767ZM3.47402 14.4521C3.17874 14.7426 3.17487 15.2174 3.46536 15.5127C3.75585 15.808 4.23071 15.8118 4.52598 15.5213L3.47402 14.4521ZM9.5569 9.5198L10.0953 8.99769C9.9562 8.85422 9.76557 8.7722 9.56573 8.76985C9.36589 8.7675 9.17338 8.845 9.03092 8.98516L9.5569 9.5198ZM12.7891 12.853L12.2506 13.3751C12.3914 13.5203 12.5849 13.6024 12.7872 13.6029C12.9894 13.6035 13.1833 13.5222 13.3249 13.3777L12.7891 12.853ZM18.1668 8.43419C18.4566 8.13827 18.4517 7.66342 18.1557 7.37359C17.8598 7.08376 17.385 7.08869 17.0951 7.38461L18.1668 8.43419ZM3.45533 11.2763C3.36984 11.0956 3.29084 10.9133 3.21904 10.7297L1.82204 11.2759C1.90711 11.4935 1.99996 11.7075 2.09936 11.9177L3.45533 11.2763ZM3.21904 10.7297C2.92223 9.97062 2.75 9.19203 2.75 8.4H1.25C1.25 9.41217 1.47041 10.3767 1.82204 11.2759L3.21904 10.7297ZM2.75 8.4C2.75 5.83895 4.84917 3.75 7.45455 3.75V2.25C4.035 2.25 1.25 4.99635 1.25 8.4H2.75ZM7.45455 3.75C9.09357 3.75 10.5348 4.57748 11.3774 5.83215L12.6226 4.99585C11.5108 3.34044 9.61003 2.25 7.45455 2.25V3.75ZM12.6226 5.83215C13.4652 4.57748 14.9064 3.75 16.5455 3.75V2.25C14.39 2.25 12.4892 3.34044 11.3774 4.99585L12.6226 5.83215ZM16.5455 3.75C19.1508 3.75 21.25 5.83895 21.25 8.4H22.75C22.75 4.99634 19.965 2.25 16.5455 2.25V3.75ZM21.25 8.4C21.25 10.1091 20.4463 11.7516 19.3511 13.2355C18.2577 14.717 16.9456 15.9485 16.0178 16.867L17.0731 17.933C17.9635 17.0515 19.3787 15.7241 20.558 14.1262C21.7355 12.5308 22.75 10.5733 22.75 8.4H21.25ZM16.0178 16.867C14.8488 18.0243 13.3746 19.1941 11.5869 20.374L12.4131 21.626C14.2618 20.4059 15.8179 19.1757 17.0731 17.933L16.0178 16.867ZM12.4131 20.374C10.6254 19.1941 9.15121 18.0243 7.98221 16.867L6.92689 17.933C8.18209 19.1757 9.73823 20.4059 11.5869 21.626L12.4131 20.374ZM7.98218 16.867C7.79872 16.6854 7.59244 16.484 7.38184 16.2767L6.32956 17.3457C6.54766 17.5604 6.74428 17.7522 6.92692 17.933L7.98218 16.867ZM4.52598 15.5213L10.0829 10.0544L9.03092 8.98516L3.47402 14.4521L4.52598 15.5213ZM9.01848 10.0419L12.2506 13.3751L13.3275 12.3308L10.0953 8.99769L9.01848 10.0419ZM13.3249 13.3777L18.1668 8.43419L17.0951 7.38461L12.2532 12.3282L13.3249 13.3777Z" fill="#1C1B1F"/>
</svg>
